<svg xmlns="http://www.w3.org/2000/svg" viewBox="0 0 300 240">
 <defs><linearGradient id="g" x2="1" y2="1"><stop stop-color="#ffc7d9"/><stop offset="1" stop-color="#ec6b91"/></linearGradient></defs>
 <rect width="300" height="240" fill="url(#g)"/><circle cx="238" cy="45" r="55" fill="#fff" opacity=".22"/>
 <circle cx="120" cy="86" r="39" fill="#f0b491"/><path d="M81 85c4-52 76-59 82 1-19-20-46-24-82-1" fill="#573342"/>
 <circle cx="183" cy="91" r="37" fill="#c77f59"/><path d="M147 82c9-48 70-41 75 12-24-22-46-21-75-12" fill="#30232a"/>
 <path d="M58 240c8-79 55-106 94-106s87 27 93 106" fill="#fff3f6"/><path d="M148 240c0-61 17-105 60-105 34 0 68 43 75 105" fill="#8d3656"/>
 <path d="M139 117c9 13 25 14 34-1" fill="none" stroke="#fff" stroke-width="5" stroke-linecap="round"/>
</svg>
